<?xml version="1.0" encoding="utf-8"?>
<!-- Generator: Adobe Illustrator 22.1.0, SVG Export Plug-In . SVG Version: 6.00 Build 0)  -->
<svg version="1.1" id="Layer_1" xmlns="http://www.w3.org/2000/svg" xmlns:xlink="http://www.w3.org/1999/xlink" x="0px" y="0px"
	 viewBox="0 0 271.5 214.6" enable-background="new 0 0 271.5 214.6" xml:space="preserve">
<g id="Layer_3" display="none">
	<path display="inline" fill="none" stroke="#414141" stroke-width="10" stroke-linecap="round" stroke-miterlimit="10" d="
		M165.5,173.9H229c0,0,11-0.4,19.5-6.9c4.3-3.3,11.1-13.5,11.1-13.5c4.1-7.2,6.3-15.8,6.8-23.8c0.7-11.5-2.6-22.9-9.1-32.4
		c-3-4.3-6.5-8.2-10.5-11.6c-7-6-14.5-7.2-14.3-17.4c0-2.5,0.1-5-0.1-7.5c-0.4-5.4-1.6-10.8-3.5-15.8c-3.7-9.9-10.2-18.5-18.5-24.9
		c-17.3-13.4-41.9-18.4-63-12.7c-11,3-21,8.8-29.1,16.8c-4,3.9-7.8,8.4-10.5,13.3c-1.1,2.1-2.4,4.2-5,4.6c-2.5,0.5-5.2-0.3-7.6-0.9
		c-20-4.8-42,6.2-46.8,25.4c-5.4,21.4-12.2,11-25,20.8c-9,6.9-15.9,16.6-18.6,27.7c-2.5,9.9-1.7,20.4,2.8,29.6
		c4.1,8.4,10.9,15.3,18.8,20.2c9.6,5.9,20.5,8.5,31.7,9.1c6.3,0.4,12.6,0.1,18.8,0c6.4-0.1,12.9-0.1,19.3-0.1c10.4,0,32.3,0,36.2,0"
		/>
	
		<line display="inline" fill="none" stroke="#414141" stroke-width="10" stroke-linecap="round" stroke-miterlimit="10" x1="137.5" y1="209.7" x2="137.5" y2="119.1"/>
	
		<polyline display="inline" fill="none" stroke="#404041" stroke-width="10" stroke-linecap="round" stroke-linejoin="round" stroke-miterlimit="2.613" points="
		109.9,135.9 137.7,108.1 165.7,136.1 	"/>
</g>
<g id="Layer_3_copy">
	<path fill="#694ED6" d="M261.4,94.4c-3.1-4.5-6.9-8.7-11.3-12.5c-2.1-1.8-4.2-3.2-6-4.4c-5-3.3-6.6-4.6-6.5-9.2
		c0-2.5,0.1-5.2-0.1-7.9c-0.4-5.7-1.7-11.5-3.8-17.3c-4-10.6-10.9-20-20.1-27.1C195.1,1.7,168.7-3.6,146.3,2.4
		c-11.7,3.2-22.5,9.4-31.3,18.1c-5,4.9-8.7,9.7-11.3,14.5c-0.7,1.3-1.2,2-1.5,2.1c-1.3,0.2-3.3-0.3-5-0.7l-0.5-0.1
		C73.4,30.7,49.3,44,43.9,65.4c-2.6,10.5-4.6,10.9-9.2,11.9c-3.5,0.8-8.3,1.8-13.9,6.1C10.2,91.2,3,102,0,113.9
		c-2.8,11.3-1.7,23.1,3.2,33c4.3,8.9,11.5,16.6,20.7,22.2c9.4,5.8,20.8,9.1,34,9.8c2.6,0.1,5.2,0.2,7.7,0.2c3.1,0,6.2-0.1,9.2-0.1
		l2.3-0.1c6.4-0.1,12.7-0.1,19.2-0.1c10.5,0,32.4,0,36.2,0l0,0v30.8c0,2.8,2.2,5,5,5s5-2.2,5-5v-89.7l19.7,19.7c1,1,2.3,1.5,3.5,1.5
		s2.6-0.5,3.5-1.5c2-2,2-5.1,0-7.1l-28-28c-0.9-0.9-2.2-1.5-3.5-1.5s-2.6,0.5-3.5,1.5l-27.8,27.8c-2,2-2,5.1,0,7.1s5.1,2,7.1,0
		l19.1-19.1v48.5l0,0l0,0c-3.8,0-25.6,0-36.1,0c-6.5,0-12.9,0-19.4,0.1l-2.4,0.1c-5.3,0.1-10.8,0.3-16.1,0
		c-11.5-0.7-21.4-3.5-29.3-8.4c-7.6-4.7-13.4-10.9-16.9-18.1c-3.8-7.9-4.7-17.2-2.4-26.2c2.4-9.7,8.4-18.5,16.8-24.9
		c3.8-2.9,6.8-3.6,10-4.3c7.6-1.7,12.9-3.9,16.8-19.3C57.7,51.7,76.3,41.7,94.4,46l0.5,0.1c2.6,0.6,5.8,1.4,9.2,0.8
		c5-0.9,7.2-5,8.4-7.1c2.2-4,5.3-7.9,9.6-12.2c7.5-7.4,16.8-12.8,26.9-15.5c19.5-5.3,42.5-0.6,58.6,11.8c7.7,6,13.5,13.8,16.9,22.7
		c1.8,4.9,2.9,9.7,3.2,14.4c0.2,2.3,0.1,4.6,0.1,7.1c-0.2,10.2,5.8,14.2,11,17.6c1.7,1.1,3.4,2.3,5,3.7c3.8,3.2,7,6.8,9.7,10.6
		c6,8.6,8.9,19,8.3,29.3c-0.5,7.8-2.6,15.4-6,21.5c-2.5,3.7-7.3,10.2-9.9,12.2c-6.7,5.2-15.7,5.8-16.6,5.9h-63.4c-2.8,0-5,2.2-5,5
		s2.2,5,5,5H229h0.2c0.5,0,12.7-0.6,22.3-7.9c4.8-3.7,11.5-13.6,12.3-14.7l0.2-0.3c4.2-7.4,6.8-16.6,7.4-25.9
		C272.2,117.5,268.6,104.8,261.4,94.4z"/>
</g>
</svg>
